<svg width="56" height="57" viewBox="0 0 56 57" fill="none" xmlns="http://www.w3.org/2000/svg">
    <circle cx="27.9998" cy="28.3479" r="27.0003" fill="white" stroke="#EA5455" stroke-width="2"/>
    <g clip-path="url(#clip0_536_130)">
    <path d="M28.4663 42.1741C24.6759 42.1741 21.0407 40.6684 18.3605 37.9881C15.6802 35.3079 14.1745 31.6727 14.1745 27.8823C14.1745 24.0919 15.6802 20.4567 18.3605 17.7765C21.0407 15.0963 24.6759 13.5905 28.4663 13.5905C32.2567 13.5905 35.8919 15.0963 38.5721 17.7765C41.2524 20.4567 42.7581 24.0919 42.7581 27.8823C42.7581 31.6727 41.2524 35.3079 38.5721 37.9881C35.8919 40.6684 32.2567 42.1741 28.4663 42.1741ZM28.4663 44.2158C32.7982 44.2158 36.9527 42.495 40.0158 39.4318C43.0789 36.3687 44.7998 32.2142 44.7998 27.8823C44.7998 23.5504 43.0789 19.3959 40.0158 16.3328C36.9527 13.2697 32.7982 11.5488 28.4663 11.5488C24.1344 11.5488 19.9799 13.2697 16.9168 16.3328C13.8537 19.3959 12.1328 23.5504 12.1328 27.8823C12.1328 32.2142 13.8537 36.3687 16.9168 39.4318C19.9799 42.495 24.1344 44.2158 28.4663 44.2158Z" fill="#EA5455"/>
    <path d="M20.8815 31.0822C21.116 30.9468 21.3946 30.9101 21.6561 30.9802C21.9176 31.0503 22.1406 31.2214 22.276 31.4558C22.903 32.5427 23.8053 33.4452 24.892 34.0724C25.9788 34.6997 27.2116 35.0295 28.4663 35.0288C29.7211 35.0295 30.9539 34.6997 32.0407 34.0724C33.1274 33.4452 34.0297 32.5427 34.6567 31.4558C34.7233 31.3388 34.8123 31.2361 34.9187 31.1536C35.0251 31.0711 35.1468 31.0105 35.2767 30.9752C35.4066 30.9399 35.5423 30.9307 35.6758 30.9481C35.8093 30.9654 35.938 31.009 36.0546 31.0763C36.1712 31.1436 36.2733 31.2333 36.3551 31.3403C36.4369 31.4472 36.4967 31.5693 36.5311 31.6994C36.5655 31.8296 36.5738 31.9653 36.5556 32.0987C36.5374 32.2321 36.4929 32.3605 36.4248 32.4767C35.6186 33.8739 34.4586 35.0341 33.0615 35.8406C31.6644 36.647 30.0795 37.0712 28.4663 37.0705C26.8532 37.0712 25.2683 36.647 23.8712 35.8406C22.4741 35.0341 21.3141 33.8739 20.5079 32.4767C20.3725 32.2422 20.3358 31.9636 20.4059 31.7021C20.4759 31.4405 20.647 31.2176 20.8815 31.0822ZM26.4247 24.8203C26.4247 26.5109 25.51 27.8829 24.383 27.8829C23.256 27.8829 22.3413 26.5109 22.3413 24.8203C22.3413 23.1298 23.256 21.7578 24.383 21.7578C25.51 21.7578 26.4247 23.1298 26.4247 24.8203ZM34.5914 24.8203C34.5914 26.5109 33.6767 27.8829 32.5497 27.8829C31.4227 27.8829 30.508 26.5109 30.508 24.8203C30.508 23.1298 31.4227 21.7578 32.5497 21.7578C33.6767 21.7578 34.5914 23.1298 34.5914 24.8203Z" fill="#EA5455"/>
    </g>
    <defs>
    <clipPath id="clip0_536_130">
    <rect width="32.667" height="32.667" fill="white" transform="translate(12.1328 11.5488)"/>
    </clipPath>
    </defs>
    </svg>
