<svg width="212" height="37" viewBox="0 0 212 37" fill="none" xmlns="http://www.w3.org/2000/svg">
    <path d="M23.3652 0.794922C23.2676 2.32487 23.1781 3.83854 23.0967 5.33594C23.0153 6.83333 22.9095 8.34701 22.7793 9.87695L12.4277 10.4141V13.4902H21.4121L20.9238 21.0586L12.3789 21.3027L12.4277 35.7559L0.0742188 36L0.855469 0.794922H23.3652ZM54.2979 17.2988C54.2979 18.7799 54.127 20.2122 53.7852 21.5957C53.4434 22.9629 52.9469 24.2487 52.2959 25.4531C51.6611 26.6576 50.8799 27.7643 49.9521 28.7734C49.0407 29.7663 48.0072 30.6208 46.8516 31.3369C45.7122 32.0531 44.4671 32.6146 43.1162 33.0215C41.7653 33.4121 40.333 33.6074 38.8193 33.6074C37.3545 33.6074 35.9548 33.4202 34.6201 33.0459C33.3018 32.6715 32.0648 32.1507 30.9092 31.4834C29.7536 30.7998 28.7038 29.986 27.7598 29.042C26.832 28.0817 26.0345 27.0238 25.3672 25.8682C24.7161 24.6963 24.2035 23.443 23.8291 22.1084C23.471 20.7738 23.292 19.3822 23.292 17.9336C23.292 16.5176 23.4629 15.1341 23.8047 13.7832C24.1465 12.416 24.6348 11.1302 25.2695 9.92578C25.9206 8.72135 26.7018 7.61458 27.6133 6.60547C28.5247 5.59635 29.542 4.72559 30.665 3.99316C31.8044 3.26074 33.0332 2.69108 34.3516 2.28418C35.6699 1.87728 37.0615 1.67383 38.5264 1.67383C40.8864 1.67383 43.0348 2.04004 44.9717 2.77246C46.9248 3.50488 48.585 4.55469 49.9521 5.92188C51.3356 7.27279 52.4017 8.91667 53.1504 10.8535C53.9154 12.7741 54.2979 14.9225 54.2979 17.2988ZM43.458 17.9336C43.458 17.2337 43.3522 16.5583 43.1406 15.9072C42.9453 15.2399 42.6523 14.654 42.2617 14.1494C41.8711 13.6286 41.3828 13.2135 40.7969 12.9043C40.2272 12.5788 39.568 12.416 38.8193 12.416C38.0544 12.416 37.3708 12.5544 36.7686 12.8311C36.1663 13.1077 35.6455 13.4902 35.2061 13.9785C34.7829 14.4505 34.4574 15.012 34.2295 15.6631C34.0016 16.2979 33.8877 16.9733 33.8877 17.6895C33.8877 18.373 33.9854 19.0566 34.1807 19.7402C34.376 20.4238 34.6689 21.0423 35.0596 21.5957C35.4502 22.1491 35.9303 22.5967 36.5 22.9385C37.0859 23.2803 37.7614 23.4512 38.5264 23.4512C39.2913 23.4512 39.9749 23.3047 40.5771 23.0117C41.1956 22.7025 41.7165 22.2956 42.1396 21.791C42.5628 21.2702 42.8883 20.6761 43.1162 20.0088C43.3441 19.3415 43.458 18.6497 43.458 17.9336ZM86.1826 17.2988C86.1826 18.7799 86.0117 20.2122 85.6699 21.5957C85.3281 22.9629 84.8317 24.2487 84.1807 25.4531C83.5459 26.6576 82.7646 27.7643 81.8369 28.7734C80.9255 29.7663 79.8919 30.6208 78.7363 31.3369C77.597 32.0531 76.3519 32.6146 75.001 33.0215C73.6501 33.4121 72.2178 33.6074 70.7041 33.6074C69.2393 33.6074 67.8395 33.4202 66.5049 33.0459C65.1865 32.6715 63.9495 32.1507 62.7939 31.4834C61.6383 30.7998 60.5885 29.986 59.6445 29.042C58.7168 28.0817 57.9193 27.0238 57.252 25.8682C56.6009 24.6963 56.0882 23.443 55.7139 22.1084C55.3558 20.7738 55.1768 19.3822 55.1768 17.9336C55.1768 16.5176 55.3477 15.1341 55.6895 13.7832C56.0312 12.416 56.5195 11.1302 57.1543 9.92578C57.8053 8.72135 58.5866 7.61458 59.498 6.60547C60.4095 5.59635 61.4268 4.72559 62.5498 3.99316C63.6891 3.26074 64.918 2.69108 66.2363 2.28418C67.5547 1.87728 68.9463 1.67383 70.4111 1.67383C72.7712 1.67383 74.9196 2.04004 76.8564 2.77246C78.8096 3.50488 80.4697 4.55469 81.8369 5.92188C83.2204 7.27279 84.2865 8.91667 85.0352 10.8535C85.8001 12.7741 86.1826 14.9225 86.1826 17.2988ZM75.3428 17.9336C75.3428 17.2337 75.237 16.5583 75.0254 15.9072C74.8301 15.2399 74.5371 14.654 74.1465 14.1494C73.7559 13.6286 73.2676 13.2135 72.6816 12.9043C72.112 12.5788 71.4528 12.416 70.7041 12.416C69.9391 12.416 69.2555 12.5544 68.6533 12.8311C68.0511 13.1077 67.5303 13.4902 67.0908 13.9785C66.6676 14.4505 66.3421 15.012 66.1143 15.6631C65.8864 16.2979 65.7725 16.9733 65.7725 17.6895C65.7725 18.373 65.8701 19.0566 66.0654 19.7402C66.2607 20.4238 66.5537 21.0423 66.9443 21.5957C67.335 22.1491 67.8151 22.5967 68.3848 22.9385C68.9707 23.2803 69.6462 23.4512 70.4111 23.4512C71.1761 23.4512 71.8597 23.3047 72.4619 23.0117C73.0804 22.7025 73.6012 22.2956 74.0244 21.791C74.4476 21.2702 74.7731 20.6761 75.001 20.0088C75.2288 19.3415 75.3428 18.6497 75.3428 17.9336ZM115.553 16.6152C115.553 18.8939 115.26 20.9365 114.674 22.7432C114.088 24.5498 113.266 26.153 112.208 27.5527C111.166 28.9362 109.921 30.1162 108.473 31.0928C107.024 32.0693 105.437 32.875 103.712 33.5098C101.987 34.1283 100.147 34.584 98.1943 34.877C96.2575 35.1699 94.2637 35.3164 92.2129 35.3164C91.4479 35.3164 90.6992 35.3001 89.9668 35.2676C89.2344 35.2188 88.4857 35.1536 87.7207 35.0723L88.4043 3.28516C90.1947 2.71549 92.0339 2.31673 93.9219 2.08887C95.8262 1.84473 97.7142 1.72266 99.5859 1.72266C101.913 1.72266 104.054 2.04818 106.007 2.69922C107.96 3.35026 109.645 4.31055 111.061 5.58008C112.477 6.83333 113.575 8.3877 114.356 10.2432C115.154 12.0824 115.553 14.2064 115.553 16.6152ZM98.9512 25.9902C99.9277 25.8438 100.815 25.5508 101.612 25.1113C102.426 24.6556 103.126 24.1022 103.712 23.4512C104.298 22.7839 104.745 22.0352 105.055 21.2051C105.38 20.3587 105.543 19.4635 105.543 18.5195C105.543 17.5918 105.445 16.7292 105.25 15.9316C105.055 15.1178 104.737 14.418 104.298 13.832C103.858 13.2298 103.281 12.7578 102.564 12.416C101.848 12.0579 100.969 11.8626 99.9277 11.8301L98.9512 25.9902ZM138.502 23.0605L137.477 33.9004L116.92 35.5117L117.701 0.648438H130.396L128.59 23.0605H138.502ZM152.394 1.625L150.685 34.877L140.382 35.4141L139.405 2.30859L152.394 1.625ZM181.642 16.2734C181.642 17.6895 181.544 19.1055 181.349 20.5215C178.565 20.7005 175.799 20.9935 173.048 21.4004C170.297 21.791 167.547 22.1816 164.796 22.5723C165.219 23.7441 165.878 24.68 166.773 25.3799C167.685 26.0798 168.767 26.4297 170.021 26.4297C170.672 26.4297 171.38 26.3076 172.145 26.0635C172.926 25.8193 173.699 25.5182 174.464 25.1602C175.229 24.7858 175.961 24.387 176.661 23.9639C177.361 23.5407 177.963 23.1582 178.468 22.8164L177.296 33.9004C176.661 34.3887 175.969 34.8037 175.221 35.1455C174.488 35.4873 173.723 35.764 172.926 35.9756C172.128 36.1872 171.323 36.3418 170.509 36.4395C169.695 36.5371 168.897 36.5859 168.116 36.5859C166.505 36.5859 165.032 36.3662 163.697 35.9268C162.363 35.4873 161.15 34.877 160.06 34.0957C158.985 33.2982 158.041 32.3623 157.228 31.2881C156.414 30.2139 155.738 29.042 155.201 27.7725C154.664 26.5029 154.257 25.1602 153.98 23.7441C153.704 22.3281 153.565 20.8958 153.565 19.4473C153.565 17.9336 153.704 16.4199 153.98 14.9062C154.257 13.3926 154.672 11.9359 155.226 10.5361C155.795 9.13639 156.503 7.84245 157.35 6.6543C158.212 5.44987 159.213 4.40007 160.353 3.50488C161.492 2.6097 162.778 1.90983 164.21 1.40527C165.659 0.900716 167.254 0.648438 168.995 0.648438C170.444 0.648438 171.762 0.851888 172.95 1.25879C174.155 1.64941 175.221 2.2028 176.148 2.91895C177.092 3.61882 177.906 4.45703 178.59 5.43359C179.29 6.41016 179.859 7.48438 180.299 8.65625C180.755 9.81185 181.088 11.0407 181.3 12.3428C181.528 13.6286 181.642 14.9388 181.642 16.2734ZM171.876 15.0039C171.876 14.5482 171.827 14.0843 171.729 13.6123C171.632 13.124 171.469 12.6846 171.241 12.2939C171.03 11.9033 170.745 11.5859 170.387 11.3418C170.029 11.0814 169.581 10.9512 169.044 10.9512C168.393 10.9512 167.815 11.1302 167.311 11.4883C166.822 11.8301 166.399 12.2695 166.041 12.8066C165.683 13.3275 165.39 13.8971 165.162 14.5156C164.934 15.1341 164.763 15.7038 164.649 16.2246L171.876 15.541V15.0039ZM211.866 12.4648C211.866 13.7344 211.752 14.89 211.524 15.9316C211.313 16.957 210.971 17.901 210.499 18.7637C210.027 19.6263 209.417 20.4238 208.668 21.1562C207.919 21.8887 207.016 22.5885 205.958 23.2559L211.769 33.6074L200.782 35.7559L197.022 25.3555L193.995 25.4531L193.556 35.6094H183.058C183.139 31.8984 183.212 28.2038 183.277 24.5254C183.359 20.847 183.448 17.1523 183.546 13.4414C183.578 11.5697 183.611 9.71419 183.644 7.875C183.676 6.03581 183.741 4.18034 183.839 2.30859C184.978 1.88542 186.101 1.53548 187.208 1.25879C188.315 0.982096 189.422 0.770508 190.528 0.624023C191.651 0.461263 192.783 0.355469 193.922 0.306641C195.077 0.241536 196.257 0.208984 197.462 0.208984C199.317 0.208984 201.108 0.469401 202.833 0.990234C204.575 1.49479 206.113 2.25977 207.447 3.28516C208.782 4.31055 209.848 5.58822 210.646 7.11816C211.459 8.64811 211.866 10.4303 211.866 12.4648ZM200.929 13.2461C200.929 12.5625 200.831 11.9359 200.636 11.3662C200.457 10.7965 200.18 10.3083 199.806 9.90137C199.448 9.47819 198.992 9.15267 198.438 8.9248C197.901 8.68066 197.267 8.55859 196.534 8.55859C196.209 8.55859 195.891 8.58301 195.582 8.63184C195.273 8.66439 194.972 8.72135 194.679 8.80273L194.288 17.8848H194.874C195.574 17.8848 196.282 17.7952 196.998 17.6162C197.73 17.4372 198.382 17.1605 198.951 16.7861C199.537 16.4118 200.009 15.9316 200.367 15.3457C200.742 14.7598 200.929 14.0599 200.929 13.2461Z" fill="#E45141"/>
    </svg>
